<svg width="15" height="18" viewBox="0 0 15 18" fill="none" xmlns="http://www.w3.org/2000/svg">
<path d="M14.8304 1.22544L9.08263 8.25013H12.0001C12.199 8.25013 12.3898 8.32914 12.5305 8.46979C12.6711 8.61045 12.7501 8.80121 12.7501 9.00013C12.7501 9.19904 12.6711 9.3898 12.5305 9.53046C12.3898 9.67111 12.199 9.75013 12.0001 9.75013H8.25013V11.2501H12.0001C12.199 11.2501 12.3898 11.3291 12.5305 11.4698C12.6711 11.6104 12.7501 11.8012 12.7501 12.0001C12.7501 12.199 12.6711 12.3898 12.5305 12.5305C12.3898 12.6711 12.199 12.7501 12.0001 12.7501H8.25013V16.5001C8.25013 16.699 8.17111 16.8898 8.03046 17.0305C7.8898 17.1711 7.69904 17.2501 7.50013 17.2501C7.30121 17.2501 7.11045 17.1711 6.9698 17.0305C6.82914 16.8898 6.75013 16.699 6.75013 16.5001V12.7501H3.00013C2.80121 12.7501 2.61045 12.6711 2.4698 12.5305C2.32914 12.3898 2.25013 12.199 2.25013 12.0001C2.25013 11.8012 2.32914 11.6104 2.4698 11.4698C2.61045 11.3291 2.80121 11.2501 3.00013 11.2501H6.75013V9.75013H3.00013C2.80121 9.75013 2.61045 9.67111 2.4698 9.53046C2.32914 9.3898 2.25013 9.19904 2.25013 9.00013C2.25013 8.80121 2.32914 8.61045 2.4698 8.46979C2.61045 8.32914 2.80121 8.25013 3.00013 8.25013H5.91763L0.169813 1.22544C0.0437521 1.07153 -0.0160056 0.873847 0.00368576 0.675879C0.0233771 0.477911 0.120904 0.295874 0.274813 0.169813C0.428721 0.0437521 0.626403 -0.0160056 0.824371 0.00368576C1.02234 0.0233771 1.20438 0.120904 1.33044 0.274813L7.50013 7.81606L13.6698 0.274813C13.7322 0.198605 13.8091 0.135438 13.8959 0.0889178C13.9827 0.0423977 14.0779 0.0134359 14.1759 0.00368576C14.2739 -0.00606439 14.3729 0.003588 14.4672 0.0320921C14.5615 0.0605963 14.6492 0.107394 14.7254 0.169813C14.8016 0.232232 14.8648 0.309049 14.9113 0.395881C14.9579 0.482712 14.9868 0.577855 14.9966 0.675879C15.0063 0.773903 14.9967 0.872887 14.9682 0.967181C14.9397 1.06147 14.8929 1.14923 14.8304 1.22544Z" fill="black"/>
</svg>
