<svg width="30" height="44" viewBox="0 0 30 44" fill="none" xmlns="http://www.w3.org/2000/svg">
<path d="M5.77137 35.16C5.7647 35.2067 5.7547 35.2733 5.74137 35.36C5.7347 35.44 5.72803 35.5267 5.72137 35.62C5.7147 35.7133 5.71137 35.7967 5.71137 35.87C5.71137 36.0433 5.71137 36.2467 5.71137 36.48C5.71137 36.7067 5.71137 36.93 5.71137 37.15C5.71137 37.37 5.71137 37.5633 5.71137 37.73C5.71137 37.8633 5.71137 38.0567 5.71137 38.31C5.71137 38.5633 5.71137 38.85 5.71137 39.17C5.71137 39.4833 5.71137 39.81 5.71137 40.15C5.71137 40.49 5.71137 40.8167 5.71137 41.13C5.71137 41.4367 5.71137 41.7133 5.71137 41.96C5.71137 42.2 5.71137 42.38 5.71137 42.5C5.71137 42.76 5.6447 42.9567 5.51137 43.09C5.37803 43.2233 5.15803 43.29 4.85137 43.29C4.71137 43.29 4.5547 43.2867 4.38137 43.28C4.2147 43.2733 4.04803 43.2633 3.88137 43.25C3.7147 43.2433 3.5647 43.2333 3.43137 43.22L3.36137 42.43C3.58137 42.47 3.7947 42.5 4.00137 42.52C4.2147 42.5333 4.3847 42.54 4.51137 42.54C4.65137 42.54 4.75137 42.51 4.81137 42.45C4.87137 42.39 4.90137 42.2933 4.90137 42.16C4.90137 42.0667 4.90137 41.9067 4.90137 41.68C4.90137 41.4533 4.90137 41.1867 4.90137 40.88C4.90137 40.5733 4.90137 40.2533 4.90137 39.92C4.90137 39.5867 4.90137 39.27 4.90137 38.97C4.90137 38.6633 4.90137 38.4 4.90137 38.18C4.90137 37.96 4.90137 37.81 4.90137 37.73C4.90137 37.61 4.90137 37.4367 4.90137 37.21C4.90137 36.9833 4.90137 36.7467 4.90137 36.5C4.90137 36.2533 4.90137 36.0433 4.90137 35.87C4.90137 35.7633 4.8947 35.6367 4.88137 35.49C4.86803 35.3433 4.85137 35.2333 4.83137 35.16H5.77137ZM1.27137 36.84C1.41803 36.86 1.5547 36.8767 1.68137 36.89C1.8147 36.8967 1.96137 36.9 2.12137 36.9C2.20137 36.9 2.3647 36.9 2.61137 36.9C2.85803 36.9 3.1547 36.9 3.50137 36.9C3.8547 36.9 4.23137 36.9 4.63137 36.9C5.03137 36.9 5.43137 36.9 5.83137 36.9C6.23803 36.9 6.6147 36.9 6.96137 36.9C7.3147 36.9 7.61137 36.9 7.85137 36.9C8.09803 36.9 8.2647 36.9 8.35137 36.9C8.47137 36.9 8.6047 36.8967 8.75137 36.89C8.9047 36.8767 9.0447 36.8633 9.17137 36.85V37.68C9.03803 37.6667 8.90137 37.66 8.76137 37.66C8.62137 37.6533 8.48803 37.65 8.36137 37.65C8.2747 37.65 8.10803 37.65 7.86137 37.65C7.62137 37.65 7.3247 37.65 6.97137 37.65C6.6247 37.65 6.25137 37.65 5.85137 37.65C5.45137 37.65 5.05137 37.65 4.65137 37.65C4.25137 37.65 3.8747 37.65 3.52137 37.65C3.1747 37.65 2.87803 37.65 2.63137 37.65C2.3847 37.65 2.21803 37.65 2.13137 37.65C1.97803 37.65 1.83137 37.6533 1.69137 37.66C1.55137 37.6667 1.41137 37.6767 1.27137 37.69V36.84ZM3.57137 39.2C3.4647 39.4133 3.33137 39.6467 3.17137 39.9C3.01803 40.1533 2.84803 40.4067 2.66137 40.66C2.48137 40.9133 2.30137 41.1533 2.12137 41.38C1.94803 41.6 1.79137 41.7867 1.65137 41.94L0.961367 41.47C1.12803 41.3167 1.30137 41.1333 1.48137 40.92C1.66803 40.7067 1.84803 40.48 2.02137 40.24C2.1947 40 2.3547 39.76 2.50137 39.52C2.64803 39.28 2.77137 39.06 2.87137 38.86L3.57137 39.2ZM7.75137 38.86C7.8847 39.02 8.02803 39.2133 8.18137 39.44C8.34137 39.66 8.50137 39.8933 8.66137 40.14C8.82803 40.3867 8.98137 40.6267 9.12137 40.86C9.26137 41.0933 9.38137 41.3 9.48137 41.48L8.74137 41.89C8.64803 41.69 8.53137 41.47 8.39137 41.23C8.25803 40.99 8.1147 40.7467 7.96137 40.5C7.80803 40.2533 7.65137 40.02 7.49137 39.8C7.33803 39.58 7.19803 39.39 7.07137 39.23L7.75137 38.86ZM11.1714 38.67C11.2714 38.6767 11.3947 38.6867 11.5414 38.7C11.688 38.7067 11.848 38.7133 12.0214 38.72C12.2014 38.72 12.3814 38.72 12.5614 38.72C12.668 38.72 12.8314 38.72 13.0514 38.72C13.278 38.72 13.5414 38.72 13.8414 38.72C14.1414 38.72 14.458 38.72 14.7914 38.72C15.1314 38.72 15.468 38.72 15.8014 38.72C16.1414 38.72 16.4614 38.72 16.7614 38.72C17.068 38.72 17.3314 38.72 17.5514 38.72C17.7714 38.72 17.9347 38.72 18.0414 38.72C18.2947 38.72 18.5114 38.7133 18.6914 38.7C18.8714 38.6867 19.0147 38.6767 19.1214 38.67V39.65C19.0214 39.6433 18.8714 39.6333 18.6714 39.62C18.478 39.6067 18.2714 39.6 18.0514 39.6C17.9447 39.6 17.778 39.6 17.5514 39.6C17.3247 39.6 17.0614 39.6 16.7614 39.6C16.468 39.6 16.1514 39.6 15.8114 39.6C15.4714 39.6 15.1314 39.6 14.7914 39.6C14.458 39.6 14.1414 39.6 13.8414 39.6C13.548 39.6 13.288 39.6 13.0614 39.6C12.8347 39.6 12.668 39.6 12.5614 39.6C12.288 39.6 12.028 39.6067 11.7814 39.62C11.5347 39.6267 11.3314 39.6367 11.1714 39.65V38.67ZM25.0686 35.54C25.022 35.6667 24.9686 35.8 24.9086 35.94C24.8553 36.08 24.7953 36.2567 24.7286 36.47C24.6686 36.6367 24.592 36.87 24.4986 37.17C24.4053 37.47 24.2986 37.8033 24.1786 38.17C24.0653 38.53 23.942 38.9033 23.8086 39.29C23.682 39.6767 23.5553 40.0533 23.4286 40.42C23.302 40.7867 23.1853 41.1167 23.0786 41.41C22.9786 41.6967 22.892 41.9267 22.8186 42.1L21.9086 42.13C21.9953 41.93 22.0953 41.6767 22.2086 41.37C22.322 41.0633 22.4453 40.72 22.5786 40.34C22.712 39.96 22.842 39.5733 22.9686 39.18C23.102 38.78 23.2286 38.3933 23.3486 38.02C23.4686 37.6467 23.572 37.31 23.6586 37.01C23.752 36.71 23.8253 36.4733 23.8786 36.3C23.9386 36.0667 23.982 35.8833 24.0086 35.75C24.0353 35.61 24.0553 35.4733 24.0686 35.34L25.0686 35.54ZM26.9686 38.89C27.1486 39.15 27.342 39.4567 27.5486 39.81C27.762 40.1633 27.972 40.5367 28.1786 40.93C28.392 41.3167 28.5853 41.6867 28.7586 42.04C28.9386 42.3933 29.082 42.7 29.1886 42.96L28.3486 43.34C28.2486 43.0667 28.1153 42.7467 27.9486 42.38C27.782 42.0067 27.5986 41.6233 27.3986 41.23C27.2053 40.8367 27.0053 40.4633 26.7986 40.11C26.592 39.7567 26.3986 39.4633 26.2186 39.23L26.9686 38.89ZM21.5186 41.89C21.7586 41.8767 22.0486 41.8567 22.3886 41.83C22.7353 41.7967 23.1086 41.7633 23.5086 41.73C23.9086 41.69 24.3153 41.6467 24.7286 41.6C25.1486 41.5533 25.5553 41.51 25.9486 41.47C26.342 41.4233 26.702 41.38 27.0286 41.34C27.3553 41.2933 27.6253 41.2567 27.8386 41.23L28.0586 42C27.832 42.0333 27.5453 42.07 27.1986 42.11C26.852 42.15 26.4753 42.1933 26.0686 42.24C25.6686 42.28 25.252 42.3267 24.8186 42.38C24.392 42.4267 23.9753 42.4733 23.5686 42.52C23.162 42.5667 22.7853 42.6067 22.4386 42.64C22.092 42.6733 21.802 42.7 21.5686 42.72C21.442 42.7333 21.3086 42.75 21.1686 42.77C21.0286 42.79 20.8853 42.81 20.7386 42.83L20.5886 41.9C20.742 41.9067 20.8986 41.91 21.0586 41.91C21.2253 41.9033 21.3786 41.8967 21.5186 41.89Z" fill="#7D8080"/>
<path d="M28.2916 13.1256L16.2083 0.725791C15.7551 0.261059 15.1407 0 14.5 0C13.8593 0 13.2449 0.261059 12.7917 0.725791L0.7084 13.1256C0.482901 13.3553 0.30415 13.6287 0.182539 13.9299C0.060928 14.2311 -0.00111568 14.5542 1.51849e-05 14.8802V29.76C1.51849e-05 30.0889 0.127321 30.4043 0.353928 30.6368C0.580534 30.8694 0.887878 31 1.20835 31H10.875C11.1955 31 11.5028 30.8694 11.7294 30.6368C11.956 30.4043 12.0833 30.0889 12.0833 29.76V21.0801H16.9167V29.76C16.9167 30.0889 17.044 30.4043 17.2706 30.6368C17.4972 30.8694 17.8045 31 18.125 31H27.7917C28.1121 31 28.4195 30.8694 28.6461 30.6368C28.8727 30.4043 29 30.0889 29 29.76V14.8802C29.0011 14.5542 28.9391 14.2311 28.8175 13.9299C28.6959 13.6287 28.5171 13.3553 28.2916 13.1256ZM26.5833 28.52H19.3333V19.8401C19.3333 19.5113 19.206 19.1959 18.9794 18.9633C18.7528 18.7308 18.4455 18.6002 18.125 18.6002H10.875C10.5545 18.6002 10.2472 18.7308 10.0206 18.9633C9.79398 19.1959 9.66667 19.5113 9.66667 19.8401V28.52H2.41668V14.8802L14.5 2.48037L26.5833 14.8802V28.52Z" fill="#7D8080"/>
</svg>
