<svg width="124" height="26" viewBox="0 0 124 26" fill="none" xmlns="http://www.w3.org/2000/svg">
<path d="M0.184 20V2.216H3.736V17.024H10.96V20H0.184ZM13.771 20V6.56H17.299V20H13.771ZM15.547 4.376C14.923 4.376 14.427 4.208 14.059 3.872C13.691 3.52 13.507 3.048 13.507 2.456C13.507 1.88 13.691 1.416 14.059 1.064C14.427 0.711999 14.923 0.535999 15.547 0.535999C16.139 0.535999 16.627 0.711999 17.011 1.064C17.395 1.416 17.587 1.88 17.587 2.456C17.587 3.048 17.395 3.52 17.011 3.872C16.627 4.208 16.139 4.376 15.547 4.376ZM21.6601 20V5.48C21.6601 4.552 21.8121 3.712 22.1161 2.96C22.4361 2.208 22.9321 1.616 23.6041 1.184C24.2921 0.735999 25.1961 0.511999 26.3161 0.511999C26.8601 0.511999 27.3481 0.559999 27.7801 0.655999C28.2121 0.751999 28.5801 0.855999 28.8841 0.967999L28.2361 3.608C27.7881 3.4 27.3081 3.296 26.7961 3.296C26.2841 3.296 25.8841 3.464 25.5961 3.8C25.3081 4.136 25.1641 4.672 25.1641 5.408V20H21.6601ZM19.8361 9.344V6.728L21.8521 6.56H27.7321V9.344H19.8361ZM35.4473 20.336C34.1993 20.336 33.0713 20.056 32.0633 19.496C31.0553 18.936 30.2473 18.128 29.6393 17.072C29.0473 16.016 28.7513 14.752 28.7513 13.28C28.7513 12.192 28.9193 11.216 29.2553 10.352C29.6073 9.488 30.0793 8.752 30.6713 8.144C31.2793 7.52 31.9513 7.048 32.6873 6.728C33.4393 6.392 34.2153 6.224 35.0153 6.224C36.2473 6.224 37.2793 6.504 38.1113 7.064C38.9433 7.608 39.5673 8.368 39.9833 9.344C40.4153 10.304 40.6313 11.408 40.6313 12.656C40.6313 12.976 40.6153 13.288 40.5833 13.592C40.5513 13.88 40.5113 14.112 40.4633 14.288H32.1833C32.2793 15.008 32.4953 15.616 32.8313 16.112C33.1673 16.608 33.5993 16.984 34.1273 17.24C34.6553 17.48 35.2553 17.6 35.9273 17.6C36.4713 17.6 36.9833 17.528 37.4633 17.384C37.9433 17.224 38.4313 16.992 38.9273 16.688L40.1273 18.848C39.4713 19.296 38.7353 19.656 37.9193 19.928C37.1033 20.2 36.2793 20.336 35.4473 20.336ZM32.1113 11.912H37.6073C37.6073 11.016 37.3993 10.304 36.9833 9.776C36.5833 9.232 35.9433 8.96 35.0633 8.96C34.5993 8.96 34.1593 9.072 33.7433 9.296C33.3273 9.504 32.9753 9.832 32.6873 10.28C32.3993 10.712 32.2073 11.256 32.1113 11.912ZM49.2621 20V2.216H55.1421C56.3581 2.216 57.4461 2.352 58.4061 2.624C59.3821 2.896 60.1501 3.352 60.7101 3.992C61.2861 4.632 61.5741 5.504 61.5741 6.608C61.5741 7.152 61.4701 7.688 61.2621 8.216C61.0701 8.728 60.7981 9.184 60.4461 9.584C60.0941 9.984 59.6621 10.28 59.1501 10.472V10.568C60.1101 10.792 60.9021 11.256 61.5261 11.96C62.1501 12.648 62.4621 13.584 62.4621 14.768C62.4621 15.952 62.1581 16.936 61.5501 17.72C60.9581 18.488 60.1421 19.064 59.1021 19.448C58.0781 19.816 56.9101 20 55.5981 20H49.2621ZM52.8141 9.464H54.9021C56.0221 9.464 56.8381 9.256 57.3501 8.84C57.8621 8.408 58.1181 7.84 58.1181 7.136C58.1181 6.352 57.8541 5.792 57.3261 5.456C56.7981 5.12 55.9981 4.952 54.9261 4.952H52.8141V9.464ZM52.8141 17.264H55.2861C56.5021 17.264 57.4221 17.048 58.0461 16.616C58.6861 16.168 59.0061 15.48 59.0061 14.552C59.0061 13.688 58.6861 13.064 58.0461 12.68C57.4221 12.28 56.5021 12.08 55.2861 12.08H52.8141V17.264ZM65.3101 20V6.56H68.1901L68.4541 8.936H68.5261C69.0221 8.056 69.6061 7.384 70.2781 6.92C70.9501 6.456 71.6381 6.224 72.3421 6.224C72.7261 6.224 73.0301 6.256 73.2541 6.32C73.4941 6.368 73.7101 6.432 73.9021 6.512L73.3261 9.56C73.0701 9.496 72.8381 9.448 72.6301 9.416C72.4381 9.368 72.1901 9.344 71.8861 9.344C71.3741 9.344 70.8301 9.544 70.2541 9.944C69.6941 10.344 69.2221 11.024 68.8381 11.984V20H65.3101ZM75.7866 20V6.56H79.3146V20H75.7866ZM77.5626 4.376C76.9386 4.376 76.4426 4.208 76.0746 3.872C75.7066 3.52 75.5226 3.048 75.5226 2.456C75.5226 1.88 75.7066 1.416 76.0746 1.064C76.4426 0.711999 76.9386 0.535999 77.5626 0.535999C78.1546 0.535999 78.6426 0.711999 79.0266 1.064C79.4106 1.416 79.6026 1.88 79.6026 2.456C79.6026 3.048 79.4106 3.52 79.0266 3.872C78.6426 4.208 78.1546 4.376 77.5626 4.376ZM87.8037 20.336C86.6837 20.336 85.7077 20.056 84.8757 19.496C84.0597 18.936 83.4277 18.128 82.9797 17.072C82.5317 16.016 82.3077 14.752 82.3077 13.28C82.3077 11.824 82.5717 10.576 83.0997 9.536C83.6437 8.48 84.3477 7.664 85.2117 7.088C86.0757 6.512 86.9877 6.224 87.9477 6.224C88.6997 6.224 89.3317 6.36 89.8437 6.632C90.3717 6.888 90.8757 7.24 91.3557 7.688L91.2357 5.576V0.847999H94.7637V20H91.8837L91.6197 18.608H91.5237C91.0277 19.088 90.4597 19.496 89.8197 19.832C89.1797 20.168 88.5077 20.336 87.8037 20.336ZM88.7157 17.432C89.1957 17.432 89.6357 17.328 90.0357 17.12C90.4517 16.896 90.8517 16.536 91.2357 16.04V10.136C90.8357 9.768 90.4197 9.512 89.9877 9.368C89.5717 9.208 89.1477 9.128 88.7157 9.128C88.2197 9.128 87.7557 9.288 87.3237 9.608C86.9077 9.912 86.5717 10.368 86.3157 10.976C86.0597 11.584 85.9317 12.336 85.9317 13.232C85.9317 14.16 86.0357 14.936 86.2437 15.56C86.4677 16.184 86.7877 16.656 87.2037 16.976C87.6197 17.28 88.1237 17.432 88.7157 17.432ZM103.249 25.832C102.193 25.832 101.241 25.704 100.393 25.448C99.545 25.208 98.873 24.832 98.377 24.32C97.897 23.824 97.657 23.176 97.657 22.376C97.657 21.816 97.817 21.296 98.137 20.816C98.457 20.336 98.937 19.928 99.577 19.592V19.472C99.225 19.248 98.929 18.952 98.689 18.584C98.465 18.216 98.353 17.752 98.353 17.192C98.353 16.696 98.497 16.232 98.785 15.8C99.089 15.352 99.441 14.984 99.841 14.696V14.6C99.377 14.264 98.961 13.792 98.593 13.184C98.225 12.576 98.041 11.872 98.041 11.072C98.041 10.016 98.289 9.128 98.785 8.408C99.297 7.688 99.969 7.144 100.801 6.776C101.633 6.408 102.513 6.224 103.441 6.224C103.841 6.224 104.209 6.256 104.545 6.32C104.897 6.384 105.217 6.464 105.505 6.56H110.329V9.152H108.049C108.225 9.392 108.369 9.688 108.481 10.04C108.593 10.392 108.649 10.776 108.649 11.192C108.649 12.2 108.417 13.048 107.953 13.736C107.489 14.408 106.865 14.912 106.081 15.248C105.297 15.584 104.417 15.752 103.441 15.752C103.201 15.752 102.929 15.728 102.625 15.68C102.321 15.616 102.017 15.536 101.713 15.44C101.537 15.6 101.393 15.768 101.281 15.944C101.185 16.104 101.137 16.328 101.137 16.616C101.137 16.952 101.289 17.216 101.593 17.408C101.913 17.6 102.465 17.696 103.249 17.696H105.553C107.169 17.696 108.409 17.968 109.273 18.512C110.137 19.04 110.569 19.888 110.569 21.056C110.569 21.968 110.265 22.776 109.657 23.48C109.065 24.2 108.217 24.768 107.113 25.184C106.025 25.616 104.737 25.832 103.249 25.832ZM103.441 13.568C103.841 13.568 104.201 13.472 104.521 13.28C104.841 13.088 105.097 12.808 105.289 12.44C105.481 12.056 105.577 11.6 105.577 11.072C105.577 10.544 105.481 10.104 105.289 9.752C105.097 9.384 104.841 9.112 104.521 8.936C104.201 8.744 103.841 8.648 103.441 8.648C103.057 8.648 102.705 8.744 102.385 8.936C102.065 9.112 101.809 9.384 101.617 9.752C101.441 10.104 101.353 10.544 101.353 11.072C101.353 11.6 101.441 12.056 101.617 12.44C101.809 12.808 102.065 13.088 102.385 13.28C102.705 13.472 103.057 13.568 103.441 13.568ZM103.777 23.576C104.465 23.576 105.057 23.488 105.553 23.312C106.065 23.136 106.465 22.904 106.753 22.616C107.041 22.328 107.185 22.008 107.185 21.656C107.185 21.176 106.993 20.848 106.609 20.672C106.225 20.512 105.673 20.432 104.953 20.432H103.297C102.897 20.432 102.553 20.416 102.265 20.384C101.977 20.368 101.705 20.328 101.449 20.264C101.145 20.504 100.921 20.752 100.777 21.008C100.649 21.28 100.585 21.56 100.585 21.848C100.585 22.392 100.873 22.816 101.449 23.12C102.025 23.424 102.801 23.576 103.777 23.576ZM118.111 20.336C116.863 20.336 115.735 20.056 114.727 19.496C113.719 18.936 112.911 18.128 112.303 17.072C111.711 16.016 111.415 14.752 111.415 13.28C111.415 12.192 111.583 11.216 111.919 10.352C112.271 9.488 112.743 8.752 113.335 8.144C113.943 7.52 114.615 7.048 115.351 6.728C116.103 6.392 116.879 6.224 117.679 6.224C118.911 6.224 119.943 6.504 120.775 7.064C121.607 7.608 122.231 8.368 122.647 9.344C123.079 10.304 123.295 11.408 123.295 12.656C123.295 12.976 123.279 13.288 123.247 13.592C123.215 13.88 123.175 14.112 123.127 14.288H114.847C114.943 15.008 115.159 15.616 115.495 16.112C115.831 16.608 116.263 16.984 116.791 17.24C117.319 17.48 117.919 17.6 118.591 17.6C119.135 17.6 119.647 17.528 120.127 17.384C120.607 17.224 121.095 16.992 121.591 16.688L122.791 18.848C122.135 19.296 121.399 19.656 120.583 19.928C119.767 20.2 118.943 20.336 118.111 20.336ZM114.775 11.912H120.271C120.271 11.016 120.063 10.304 119.647 9.776C119.247 9.232 118.607 8.96 117.727 8.96C117.263 8.96 116.823 9.072 116.407 9.296C115.991 9.504 115.639 9.832 115.351 10.28C115.063 10.712 114.871 11.256 114.775 11.912Z" fill="black"/>
</svg>
