<svg width="50" height="42" viewBox="0 0 50 42" fill="none" xmlns="http://www.w3.org/2000/svg">
<path d="M8.19766 33.72C8.14432 33.8067 8.08432 33.9233 8.01766 34.07C7.95766 34.2167 7.90766 34.3433 7.86766 34.45C7.74766 34.7833 7.59766 35.1433 7.41766 35.53C7.24432 35.91 7.04432 36.2933 6.81766 36.68C6.59766 37.0667 6.35099 37.4367 6.07766 37.79C5.75766 38.1967 5.39432 38.6067 4.98766 39.02C4.58766 39.4333 4.13432 39.8367 3.62766 40.23C3.12766 40.6167 2.56099 40.9767 1.92766 41.31L1.23766 40.68C2.17099 40.24 2.97099 39.73 3.63766 39.15C4.31099 38.5633 4.90099 37.9433 5.40766 37.29C5.82766 36.7633 6.16766 36.23 6.42766 35.69C6.68766 35.15 6.90432 34.6333 7.07766 34.14C7.11099 34.04 7.14766 33.92 7.18766 33.78C7.22766 33.6333 7.25766 33.5067 7.27766 33.4L8.19766 33.72ZM2.90766 34.89C3.15432 35.05 3.42099 35.23 3.70766 35.43C3.99432 35.6233 4.28099 35.8233 4.56766 36.03C4.85432 36.23 5.12432 36.4267 5.37766 36.62C5.63766 36.8133 5.86099 36.9867 6.04766 37.14C6.55432 37.5467 7.04766 37.9667 7.52766 38.4C8.00766 38.8267 8.44432 39.2567 8.83766 39.69L8.20766 40.38C7.78766 39.8933 7.35432 39.4467 6.90766 39.04C6.46766 38.6267 5.99766 38.2067 5.49766 37.78C5.31766 37.6267 5.10766 37.4567 4.86766 37.27C4.62766 37.0833 4.36766 36.8867 4.08766 36.68C3.81432 36.4733 3.53099 36.2733 3.23766 36.08C2.94432 35.88 2.66099 35.6933 2.38766 35.52L2.90766 34.89ZM14.9277 35.24C14.9743 35.34 15.0343 35.49 15.1077 35.69C15.181 35.8833 15.2577 36.09 15.3377 36.31C15.4243 36.53 15.501 36.74 15.5677 36.94C15.6343 37.1333 15.6843 37.2867 15.7177 37.4L14.9777 37.66C14.951 37.5467 14.9043 37.3933 14.8377 37.2C14.7777 37.0067 14.7077 36.8 14.6277 36.58C14.5477 36.3533 14.4677 36.1433 14.3877 35.95C14.3077 35.7567 14.2443 35.6033 14.1977 35.49L14.9277 35.24ZM18.5477 35.8C18.5143 35.9 18.4843 35.9933 18.4577 36.08C18.4377 36.16 18.4177 36.2333 18.3977 36.3C18.2643 36.8467 18.0843 37.3833 17.8577 37.91C17.631 38.43 17.3377 38.9167 16.9777 39.37C16.5177 39.9567 15.9977 40.4467 15.4177 40.84C14.8443 41.2333 14.2777 41.5367 13.7177 41.75L13.0577 41.08C13.4443 40.96 13.8343 40.8 14.2277 40.6C14.6277 40.4 15.0043 40.16 15.3577 39.88C15.7177 39.6 16.0343 39.29 16.3077 38.95C16.5477 38.6567 16.761 38.3267 16.9477 37.96C17.141 37.5933 17.301 37.2033 17.4277 36.79C17.5543 36.3767 17.641 35.9567 17.6877 35.53L18.5477 35.8ZM12.6077 35.74C12.661 35.8533 12.7277 36.0067 12.8077 36.2C12.8877 36.3933 12.971 36.6067 13.0577 36.84C13.151 37.0667 13.2377 37.2867 13.3177 37.5C13.4043 37.7067 13.471 37.8733 13.5177 38L12.7577 38.28C12.7177 38.1533 12.6577 37.9833 12.5777 37.77C12.5043 37.55 12.421 37.3233 12.3277 37.09C12.2343 36.8567 12.1443 36.6433 12.0577 36.45C11.9777 36.2567 11.9143 36.1167 11.8677 36.03L12.6077 35.74ZM23.1577 39.71C23.1577 39.5633 23.1577 39.35 23.1577 39.07C23.1577 38.7833 23.1577 38.4633 23.1577 38.11C23.1577 37.7567 23.1577 37.39 23.1577 37.01C23.1577 36.63 23.1577 36.26 23.1577 35.9C23.1577 35.5333 23.1577 35.2033 23.1577 34.91C23.1577 34.61 23.1577 34.37 23.1577 34.19C23.1577 34.09 23.1543 33.99 23.1477 33.89C23.1477 33.7833 23.141 33.68 23.1277 33.58C23.121 33.4733 23.1077 33.37 23.0877 33.27H24.0377C24.011 33.4167 23.991 33.57 23.9777 33.73C23.971 33.89 23.9677 34.0433 23.9677 34.19C23.9677 34.3633 23.9677 34.5933 23.9677 34.88C23.9677 35.16 23.9677 35.4733 23.9677 35.82C23.9677 36.16 23.9677 36.51 23.9677 36.87C23.9677 37.23 23.9677 37.58 23.9677 37.92C23.9677 38.26 23.9677 38.5667 23.9677 38.84C23.9677 39.1133 23.9677 39.3333 23.9677 39.5C23.9677 39.7267 24.0043 39.9067 24.0777 40.04C24.1577 40.1733 24.301 40.27 24.5077 40.33C24.7143 40.3833 25.0177 40.41 25.4177 40.41C25.8043 40.41 26.171 40.4 26.5177 40.38C26.8643 40.36 27.2043 40.3267 27.5377 40.28C27.871 40.2333 28.2043 40.18 28.5377 40.12L28.4977 40.98C28.2043 41.02 27.8943 41.0567 27.5677 41.09C27.241 41.1233 26.8943 41.1467 26.5277 41.16C26.1677 41.1733 25.7777 41.18 25.3577 41.18C24.8977 41.18 24.521 41.15 24.2277 41.09C23.9343 41.03 23.711 40.94 23.5577 40.82C23.4043 40.6933 23.2977 40.54 23.2377 40.36C23.1843 40.1733 23.1577 39.9567 23.1577 39.71ZM28.9577 35.25C28.9243 35.2967 28.8843 35.36 28.8377 35.44C28.791 35.5133 28.751 35.5833 28.7177 35.65C28.5977 35.8567 28.461 36.0867 28.3077 36.34C28.161 36.5867 27.9977 36.8433 27.8177 37.11C27.6377 37.37 27.4477 37.6267 27.2477 37.88C27.0543 38.1267 26.861 38.3533 26.6677 38.56L25.9677 38.14C26.221 37.9133 26.4643 37.6533 26.6977 37.36C26.931 37.06 27.1377 36.77 27.3177 36.49C27.5043 36.2033 27.6477 35.96 27.7477 35.76C27.7077 35.7667 27.571 35.7967 27.3377 35.85C27.111 35.8967 26.821 35.9567 26.4677 36.03C26.1143 36.0967 25.721 36.1733 25.2877 36.26C24.8543 36.3467 24.4143 36.4367 23.9677 36.53C23.521 36.6167 23.091 36.7033 22.6777 36.79C22.271 36.87 21.9077 36.9433 21.5877 37.01C21.2677 37.0767 21.021 37.1267 20.8477 37.16L20.6977 36.33C20.8777 36.3033 21.1277 36.2667 21.4477 36.22C21.7677 36.1667 22.1277 36.1033 22.5277 36.03C22.9343 35.95 23.3577 35.8667 23.7977 35.78C24.2443 35.6933 24.681 35.61 25.1077 35.53C25.541 35.4433 25.9443 35.3633 26.3177 35.29C26.691 35.21 27.011 35.1433 27.2777 35.09C27.5443 35.03 27.731 34.99 27.8377 34.97C27.9443 34.9433 28.0443 34.9167 28.1377 34.89C28.2377 34.8567 28.3143 34.8233 28.3677 34.79L28.9577 35.25ZM31.1177 36.67C31.2177 36.6767 31.341 36.6867 31.4877 36.7C31.6343 36.7067 31.7943 36.7133 31.9677 36.72C32.1477 36.72 32.3277 36.72 32.5077 36.72C32.6143 36.72 32.7777 36.72 32.9977 36.72C33.2243 36.72 33.4877 36.72 33.7877 36.72C34.0877 36.72 34.4043 36.72 34.7377 36.72C35.0777 36.72 35.4143 36.72 35.7477 36.72C36.0877 36.72 36.4077 36.72 36.7077 36.72C37.0143 36.72 37.2777 36.72 37.4977 36.72C37.7177 36.72 37.881 36.72 37.9877 36.72C38.241 36.72 38.4577 36.7133 38.6377 36.7C38.8177 36.6867 38.961 36.6767 39.0677 36.67V37.65C38.9677 37.6433 38.8177 37.6333 38.6177 37.62C38.4243 37.6067 38.2177 37.6 37.9977 37.6C37.891 37.6 37.7243 37.6 37.4977 37.6C37.271 37.6 37.0077 37.6 36.7077 37.6C36.4143 37.6 36.0977 37.6 35.7577 37.6C35.4177 37.6 35.0777 37.6 34.7377 37.6C34.4043 37.6 34.0877 37.6 33.7877 37.6C33.4943 37.6 33.2343 37.6 33.0077 37.6C32.781 37.6 32.6143 37.6 32.5077 37.6C32.2343 37.6 31.9743 37.6067 31.7277 37.62C31.481 37.6267 31.2777 37.6367 31.1177 37.65V36.67ZM47.0623 33.54C47.149 33.6533 47.249 33.8033 47.3623 33.99C47.4823 34.1767 47.599 34.3667 47.7123 34.56C47.8257 34.7533 47.919 34.93 47.9923 35.09L47.4223 35.35C47.3423 35.1767 47.2523 35 47.1523 34.82C47.0523 34.6333 46.949 34.45 46.8423 34.27C46.7357 34.09 46.6257 33.9233 46.5123 33.77L47.0623 33.54ZM48.3723 33.06C48.4657 33.1733 48.569 33.32 48.6823 33.5C48.7957 33.68 48.9123 33.8667 49.0323 34.06C49.1523 34.2533 49.2523 34.43 49.3323 34.59L48.7623 34.85C48.6757 34.67 48.579 34.49 48.4723 34.31C48.3657 34.13 48.2557 33.9533 48.1423 33.78C48.0357 33.6067 47.9257 33.4467 47.8123 33.3L48.3723 33.06ZM42.7923 33.39C42.939 33.47 43.1123 33.5767 43.3123 33.71C43.5123 33.8367 43.719 33.97 43.9323 34.11C44.1457 34.2433 44.3423 34.3733 44.5223 34.5C44.709 34.62 44.8557 34.72 44.9623 34.8L44.4923 35.49C44.3723 35.3967 44.219 35.2867 44.0323 35.16C43.8523 35.0333 43.659 34.9033 43.4523 34.77C43.2523 34.63 43.0523 34.5 42.8523 34.38C42.659 34.2533 42.489 34.1467 42.3423 34.06L42.7923 33.39ZM41.2923 40.54C41.659 40.4733 42.0357 40.3867 42.4223 40.28C42.809 40.1733 43.1923 40.0433 43.5723 39.89C43.9523 39.7367 44.309 39.5667 44.6423 39.38C45.1957 39.06 45.709 38.7067 46.1823 38.32C46.6557 37.9267 47.0823 37.51 47.4623 37.07C47.8423 36.63 48.1657 36.1767 48.4323 35.71L48.9123 36.54C48.479 37.2067 47.929 37.8533 47.2623 38.48C46.5957 39.1 45.8623 39.6433 45.0623 40.11C44.729 40.3033 44.3623 40.4833 43.9623 40.65C43.569 40.81 43.179 40.95 42.7923 41.07C42.4123 41.1967 42.0657 41.29 41.7523 41.35L41.2923 40.54ZM41.2823 35.64C41.429 35.72 41.6057 35.82 41.8123 35.94C42.019 36.06 42.229 36.1867 42.4423 36.32C42.6557 36.4533 42.8523 36.58 43.0323 36.7C43.219 36.8133 43.3657 36.91 43.4723 36.99L43.0223 37.69C42.8957 37.5967 42.739 37.49 42.5523 37.37C42.3723 37.25 42.179 37.1233 41.9723 36.99C41.7657 36.8567 41.5623 36.7333 41.3623 36.62C41.1623 36.5 40.9857 36.4 40.8323 36.32L41.2823 35.64Z" fill="#7D8080"/>
<path d="M39.3846 0H10.6154C9.92178 0 9.25655 0.272172 8.76607 0.756641C8.27559 1.24111 8.00005 1.89819 8.00005 2.58333V28.4167C7.99709 28.9091 8.13802 29.3919 8.40592 29.8071C8.67382 30.2224 9.05733 30.5525 9.51043 30.7578C9.85667 30.9166 10.2337 30.9992 10.6154 31C11.2294 30.9986 11.823 30.7823 12.2909 30.3897L12.3056 30.3784L17.6443 25.8333H39.3846C40.0783 25.8333 40.7435 25.5612 41.234 25.0767C41.7245 24.5922 42 23.9351 42 23.25V2.58333C42 1.89819 41.7245 1.24111 41.234 0.756641C40.7435 0.272172 40.0783 0 39.3846 0ZM39.3846 23.25H17.1539C16.8399 23.2502 16.5364 23.3619 16.299 23.5648L10.6154 28.4167V2.58333H39.3846V23.25ZM18.4616 10.3333C18.4616 9.99076 18.5993 9.66222 18.8446 9.41999C19.0898 9.17775 19.4224 9.04167 19.7693 9.04167H30.2308C30.5776 9.04167 30.9102 9.17775 31.1555 9.41999C31.4007 9.66222 31.5385 9.99076 31.5385 10.3333C31.5385 10.6759 31.4007 11.0044 31.1555 11.2467C30.9102 11.4889 30.5776 11.625 30.2308 11.625H19.7693C19.4224 11.625 19.0898 11.4889 18.8446 11.2467C18.5993 11.0044 18.4616 10.6759 18.4616 10.3333ZM18.4616 15.5C18.4616 15.1574 18.5993 14.8289 18.8446 14.5867C19.0898 14.3444 19.4224 14.2083 19.7693 14.2083H30.2308C30.5776 14.2083 30.9102 14.3444 31.1555 14.5867C31.4007 14.8289 31.5385 15.1574 31.5385 15.5C31.5385 15.8426 31.4007 16.1711 31.1555 16.4133C30.9102 16.6556 30.5776 16.7917 30.2308 16.7917H19.7693C19.4224 16.7917 19.0898 16.6556 18.8446 16.4133C18.5993 16.1711 18.4616 15.8426 18.4616 15.5Z" fill="#7D8080"/>
</svg>
