<svg width="40" height="42" viewBox="0 0 40 42" fill="none" xmlns="http://www.w3.org/2000/svg">
<path d="M6.6 33.17C6.58 33.3033 6.56333 33.4433 6.55 33.59C6.54333 33.73 6.54 33.87 6.54 34.01C6.54667 34.19 6.55 34.4333 6.55 34.74C6.55667 35.04 6.56333 35.38 6.57 35.76C6.57667 36.14 6.58333 36.54 6.59 36.96C6.59667 37.38 6.60333 37.8 6.61 38.22C6.61667 38.64 6.62333 39.0433 6.63 39.43C6.63667 39.8167 6.64 40.1667 6.64 40.48C6.64 40.74 6.56333 40.9367 6.41 41.07C6.25667 41.21 6.03 41.28 5.73 41.28C5.47667 41.28 5.20667 41.2733 4.92 41.26C4.64 41.2533 4.37667 41.24 4.13 41.22L4.06 40.4C4.3 40.44 4.54667 40.47 4.8 40.49C5.06 40.51 5.28333 40.52 5.47 40.52C5.61 40.52 5.70667 40.4867 5.76 40.42C5.81333 40.3533 5.84 40.2533 5.84 40.12C5.84 39.88 5.84 39.59 5.84 39.25C5.84 38.91 5.83667 38.5433 5.83 38.15C5.83 37.75 5.82667 37.3467 5.82 36.94C5.81333 36.5333 5.80667 36.1433 5.8 35.77C5.79333 35.39 5.78667 35.0467 5.78 34.74C5.78 34.4333 5.77333 34.19 5.76 34.01C5.74667 33.8167 5.73333 33.6567 5.72 33.53C5.70667 33.3967 5.69 33.2767 5.67 33.17H6.6ZM1.23 34.92C1.37667 34.9333 1.52667 34.9467 1.68 34.96C1.84 34.9733 1.99667 34.98 2.15 34.98C2.22333 34.98 2.37667 34.98 2.61 34.98C2.84333 34.98 3.13 34.98 3.47 34.98C3.81 34.98 4.17333 34.98 4.56 34.98C4.94667 34.98 5.33333 34.98 5.72 34.98C6.11333 34.98 6.47667 34.98 6.81 34.98C7.15 34.98 7.43667 34.98 7.67 34.98C7.90333 34.98 8.05667 34.98 8.13 34.98C8.26333 34.98 8.41333 34.9733 8.58 34.96C8.75333 34.94 8.88667 34.9267 8.98 34.92V35.76C8.86667 35.7533 8.73 35.75 8.57 35.75C8.41667 35.7433 8.28 35.74 8.16 35.74C8.09333 35.74 7.94333 35.74 7.71 35.74C7.48333 35.74 7.19667 35.74 6.85 35.74C6.51 35.74 6.14333 35.74 5.75 35.74C5.36333 35.74 4.97 35.74 4.57 35.74C4.17667 35.74 3.81 35.74 3.47 35.74C3.13 35.74 2.84333 35.74 2.61 35.74C2.37667 35.74 2.23 35.74 2.17 35.74C2.00333 35.74 1.84333 35.7433 1.69 35.75C1.53667 35.75 1.38333 35.7567 1.23 35.77V34.92ZM0.86 39.59C1.39333 39.3367 1.9 39.0433 2.38 38.71C2.86667 38.37 3.31667 38.02 3.73 37.66C4.14333 37.2933 4.50667 36.9333 4.82 36.58C5.13333 36.22 5.38 35.89 5.56 35.59L5.96 35.58L5.97 36.26C5.78333 36.5533 5.53333 36.88 5.22 37.24C4.90667 37.5933 4.54667 37.9533 4.14 38.32C3.74 38.68 3.30667 39.0267 2.84 39.36C2.38 39.6933 1.91333 39.9867 1.44 40.24L0.86 39.59ZM18.61 34.35C18.5767 34.4233 18.5467 34.5 18.52 34.58C18.5 34.66 18.48 34.75 18.46 34.85C18.4067 35.1167 18.3367 35.41 18.25 35.73C18.1633 36.0433 18.0567 36.37 17.93 36.71C17.81 37.0433 17.6667 37.37 17.5 37.69C17.34 38.0033 17.1633 38.2867 16.97 38.54C16.6633 38.9267 16.3233 39.29 15.95 39.63C15.5767 39.9633 15.15 40.2633 14.67 40.53C14.19 40.7967 13.6433 41.0267 13.03 41.22L12.35 40.47C13.0033 40.3033 13.5667 40.1033 14.04 39.87C14.52 39.63 14.94 39.3567 15.3 39.05C15.66 38.7433 15.9767 38.4133 16.25 38.06C16.49 37.76 16.6967 37.4167 16.87 37.03C17.05 36.6433 17.1967 36.2567 17.31 35.87C17.43 35.4767 17.5133 35.12 17.56 34.8C17.4667 34.8 17.29 34.8 17.03 34.8C16.77 34.8 16.4633 34.8 16.11 34.8C15.7567 34.8 15.3867 34.8 15 34.8C14.62 34.8 14.2533 34.8 13.9 34.8C13.5467 34.8 13.24 34.8 12.98 34.8C12.72 34.8 12.5433 34.8 12.45 34.8C12.25 34.8 12.0667 34.8033 11.9 34.81C11.7333 34.8167 11.5833 34.8233 11.45 34.83V33.95C11.5433 33.9567 11.6467 33.9667 11.76 33.98C11.8733 33.9933 11.99 34.0033 12.11 34.01C12.23 34.01 12.3433 34.01 12.45 34.01C12.53 34.01 12.6733 34.01 12.88 34.01C13.0867 34.01 13.33 34.01 13.61 34.01C13.8967 34.01 14.2 34.01 14.52 34.01C14.8467 34.01 15.1667 34.01 15.48 34.01C15.8 34.01 16.0967 34.01 16.37 34.01C16.65 34.01 16.8867 34.01 17.08 34.01C17.2733 34.01 17.4033 34.01 17.47 34.01C17.5433 34.01 17.6267 34.01 17.72 34.01C17.8133 34.0033 17.9067 33.9867 18 33.96L18.61 34.35ZM28.65 35.95C28.6233 35.99 28.59 36.0367 28.55 36.09C28.51 36.1367 28.4767 36.18 28.45 36.22C28.3767 36.34 28.27 36.5 28.13 36.7C27.9967 36.8933 27.84 37.1067 27.66 37.34C27.48 37.5667 27.2833 37.79 27.07 38.01C26.8633 38.2233 26.6467 38.4067 26.42 38.56L25.77 38.11C26.0033 37.9633 26.2333 37.7833 26.46 37.57C26.6867 37.35 26.89 37.1267 27.07 36.9C27.2567 36.6667 27.3967 36.47 27.49 36.31C27.3967 36.31 27.2233 36.31 26.97 36.31C26.7233 36.31 26.43 36.31 26.09 36.31C25.7567 36.31 25.4067 36.31 25.04 36.31C24.6733 36.3033 24.3233 36.3 23.99 36.3C23.6633 36.3 23.3833 36.3 23.15 36.3C22.9233 36.3 22.7767 36.3 22.71 36.3C22.5633 36.3 22.4067 36.3033 22.24 36.31C22.08 36.3167 21.9233 36.3267 21.77 36.34V35.51C21.91 35.53 22.0633 35.5467 22.23 35.56C22.4033 35.5733 22.5633 35.58 22.71 35.58C22.7767 35.58 22.93 35.58 23.17 35.58C23.41 35.58 23.7033 35.58 24.05 35.58C24.4033 35.58 24.77 35.58 25.15 35.58C25.53 35.58 25.8933 35.58 26.24 35.58C26.5933 35.58 26.8967 35.58 27.15 35.58C27.41 35.58 27.5767 35.58 27.65 35.58C27.7033 35.58 27.7633 35.5767 27.83 35.57C27.9033 35.5633 27.9733 35.5567 28.04 35.55C28.1067 35.5433 28.16 35.5367 28.2 35.53L28.65 35.95ZM25.29 36.98C25.29 37.4067 25.2733 37.81 25.24 38.19C25.2133 38.5633 25.1567 38.92 25.07 39.26C24.9833 39.5933 24.8533 39.91 24.68 40.21C24.5133 40.5033 24.29 40.78 24.01 41.04C23.73 41.3 23.38 41.55 22.96 41.79L22.25 41.23C22.3633 41.19 22.4767 41.14 22.59 41.08C22.71 41.0267 22.8267 40.9633 22.94 40.89C23.3933 40.59 23.7267 40.2667 23.94 39.92C24.16 39.5733 24.3033 39.2067 24.37 38.82C24.4433 38.4267 24.48 38.0133 24.48 37.58C24.48 37.48 24.4733 37.38 24.46 37.28C24.4533 37.1733 24.44 37.0733 24.42 36.98H25.29ZM31.02 36.67C31.12 36.6767 31.2433 36.6867 31.39 36.7C31.5367 36.7067 31.6967 36.7133 31.87 36.72C32.05 36.72 32.23 36.72 32.41 36.72C32.5167 36.72 32.68 36.72 32.9 36.72C33.1267 36.72 33.39 36.72 33.69 36.72C33.99 36.72 34.3067 36.72 34.64 36.72C34.98 36.72 35.3167 36.72 35.65 36.72C35.99 36.72 36.31 36.72 36.61 36.72C36.9167 36.72 37.18 36.72 37.4 36.72C37.62 36.72 37.7833 36.72 37.89 36.72C38.1433 36.72 38.36 36.7133 38.54 36.7C38.72 36.6867 38.8633 36.6767 38.97 36.67V37.65C38.87 37.6433 38.72 37.6333 38.52 37.62C38.3267 37.6067 38.12 37.6 37.9 37.6C37.7933 37.6 37.6267 37.6 37.4 37.6C37.1733 37.6 36.91 37.6 36.61 37.6C36.3167 37.6 36 37.6 35.66 37.6C35.32 37.6 34.98 37.6 34.64 37.6C34.3067 37.6 33.99 37.6 33.69 37.6C33.3967 37.6 33.1367 37.6 32.91 37.6C32.6833 37.6 32.5167 37.6 32.41 37.6C32.1367 37.6 31.8767 37.6067 31.63 37.62C31.3833 37.6267 31.18 37.6367 31.02 37.65V36.67Z" fill="#7D8080"/>
<path d="M32.3617 2.88404L32.8339 2.45H32.1925H6.80745H6.16614L6.63825 2.88404L19.3308 14.5531L19.5 14.7087L19.6692 14.5531L32.3617 2.88404ZM34.3077 24.55H34.5577V24.3V4.41956V3.85014L34.1385 4.23552L20.2411 17.0116L20.241 17.0117C20.0387 17.1979 19.7743 17.3011 19.5 17.3011C19.2257 17.3011 18.9613 17.1979 18.759 17.0117L18.7589 17.0116L4.8615 4.23552L4.44231 3.85014V4.41956V24.3V24.55H4.69231H34.3077ZM3.34615 0.25H35.6538C35.9443 0.25 36.2231 0.365719 36.4287 0.57193C36.6343 0.778166 36.75 1.05803 36.75 1.35V24.3C36.75 24.95 36.4925 25.5733 36.0344 26.0327C35.5763 26.4921 34.9552 26.75 34.3077 26.75H4.69231C4.0448 26.75 3.42366 26.492 2.96559 26.0327C2.50749 25.5733 2.25 24.95 2.25 24.3V1.35C2.25 1.05803 2.36566 0.778166 2.57131 0.57193C2.77693 0.365719 3.05567 0.25 3.34615 0.25Z" fill="#7D8080" stroke="#7D8080" stroke-width="0.5"/>
</svg>
