<svg width="40" height="45" viewBox="0 0 40 45" fill="none" xmlns="http://www.w3.org/2000/svg">
<path d="M0.65 37.28H9.39V38.01H0.65V37.28ZM5.31 37.93C5.49667 38.5233 5.73 39.1 6.01 39.66C6.29667 40.22 6.62333 40.7433 6.99 41.23C7.36333 41.71 7.77667 42.1367 8.23 42.51C8.68333 42.8833 9.16667 43.18 9.68 43.4C9.62667 43.4533 9.56333 43.52 9.49 43.6C9.41667 43.6733 9.35 43.7533 9.29 43.84C9.23 43.92 9.17667 43.9933 9.13 44.06C8.43 43.7133 7.79667 43.24 7.23 42.64C6.66333 42.04 6.17 41.3533 5.75 40.58C5.33667 39.8067 4.99 38.98 4.71 38.1L5.31 37.93ZM8.3 38.42L8.95 38.88C8.73667 39.1333 8.49667 39.3967 8.23 39.67C7.97 39.9433 7.70667 40.2033 7.44 40.45C7.17333 40.6967 6.92 40.9133 6.68 41.1L6.15 40.69C6.37667 40.4967 6.62333 40.27 6.89 40.01C7.15667 39.75 7.41333 39.48 7.66 39.2C7.91333 38.92 8.12667 38.66 8.3 38.42ZM6.31 36.11L6.76 35.64C6.97333 35.74 7.19333 35.8567 7.42 35.99C7.65333 36.1233 7.87667 36.2567 8.09 36.39C8.30333 36.5233 8.48 36.6467 8.62 36.76L8.14 37.3C8.00667 37.18 7.83667 37.05 7.63 36.91C7.42333 36.7633 7.20333 36.62 6.97 36.48C6.74333 36.34 6.52333 36.2167 6.31 36.11ZM1.19 38.98L1.76 38.6C1.96667 38.7733 2.17667 38.97 2.39 39.19C2.60333 39.4033 2.8 39.62 2.98 39.84C3.16 40.0533 3.3 40.2467 3.4 40.42L2.8 40.86C2.7 40.6867 2.56 40.49 2.38 40.27C2.20667 40.05 2.01667 39.8267 1.81 39.6C1.60333 39.3733 1.39667 39.1667 1.19 38.98ZM4.6 35.62H5.37V43.78C5.37 44.0467 5.33333 44.2433 5.26 44.37C5.18667 44.5033 5.06667 44.6033 4.9 44.67C4.73333 44.73 4.49667 44.77 4.19 44.79C3.89 44.81 3.52 44.82 3.08 44.82C3.06 44.7067 3.02333 44.5733 2.97 44.42C2.91667 44.2667 2.86 44.1333 2.8 44.02C3.14667 44.0333 3.46333 44.04 3.75 44.04C4.04333 44.04 4.24 44.04 4.34 44.04C4.43333 44.0333 4.5 44.0133 4.54 43.98C4.58 43.9467 4.6 43.88 4.6 43.78V35.62ZM0.37 43.15C0.656667 43.01 0.983333 42.84 1.35 42.64C1.71667 42.4333 2.10667 42.2133 2.52 41.98C2.93333 41.7467 3.34333 41.5167 3.75 41.29L3.99 41.96C3.45 42.2933 2.9 42.6267 2.34 42.96C1.78667 43.2867 1.28667 43.5767 0.84 43.83L0.37 43.15ZM14.48 35.91H15.32C15.3067 36.17 15.2833 36.5133 15.25 36.94C15.2167 37.3667 15.1533 37.85 15.06 38.39C14.9733 38.9233 14.8367 39.48 14.65 40.06C14.4633 40.64 14.2133 41.2133 13.9 41.78C13.5867 42.3467 13.1867 42.8833 12.7 43.39C12.22 43.8967 11.6333 44.3367 10.94 44.71C10.88 44.6167 10.7933 44.5167 10.68 44.41C10.5667 44.3033 10.45 44.21 10.33 44.13C11.0167 43.7767 11.5933 43.3633 12.06 42.89C12.5267 42.4167 12.91 41.91 13.21 41.37C13.51 40.83 13.7433 40.2867 13.91 39.74C14.0767 39.1867 14.2 38.66 14.28 38.16C14.36 37.66 14.41 37.2167 14.43 36.83C14.4567 36.4367 14.4733 36.13 14.48 35.91ZM15.28 36.11C15.2867 36.2233 15.3 36.42 15.32 36.7C15.3467 36.9733 15.3933 37.3067 15.46 37.7C15.5267 38.0933 15.6233 38.52 15.75 38.98C15.8767 39.44 16.0467 39.9133 16.26 40.4C16.4733 40.8867 16.7367 41.36 17.05 41.82C17.3633 42.28 17.74 42.7067 18.18 43.1C18.62 43.4867 19.1367 43.8133 19.73 44.08C19.6167 44.1667 19.5067 44.2667 19.4 44.38C19.3 44.5 19.2167 44.61 19.15 44.71C18.55 44.4233 18.02 44.0733 17.56 43.66C17.1067 43.24 16.7167 42.7867 16.39 42.3C16.07 41.8067 15.8 41.3033 15.58 40.79C15.3667 40.2767 15.1933 39.7767 15.06 39.29C14.9267 38.7967 14.8267 38.34 14.76 37.92C14.6933 37.4933 14.6467 37.13 14.62 36.83C14.5933 36.5233 14.5767 36.3033 14.57 36.17L15.28 36.11ZM20.52 37.74H23.72V38.45H20.52V37.74ZM21.93 35.6H22.63V44.79H21.93V35.6ZM21.92 38.19L22.38 38.34C22.3067 38.74 22.21 39.1533 22.09 39.58C21.9767 40.0067 21.8433 40.4267 21.69 40.84C21.5367 41.2533 21.3767 41.64 21.21 42C21.0433 42.3533 20.87 42.6533 20.69 42.9C20.65 42.8067 20.59 42.6967 20.51 42.57C20.43 42.4433 20.36 42.3367 20.3 42.25C20.4667 42.0233 20.63 41.7533 20.79 41.44C20.9567 41.1267 21.11 40.7867 21.25 40.42C21.3967 40.0533 21.5267 39.68 21.64 39.3C21.7533 38.92 21.8467 38.55 21.92 38.19ZM22.58 39.15C22.64 39.2167 22.73 39.3333 22.85 39.5C22.97 39.66 23.0967 39.8367 23.23 40.03C23.37 40.2233 23.4967 40.4067 23.61 40.58C23.7233 40.7467 23.8033 40.8633 23.85 40.93L23.43 41.52C23.3767 41.4 23.2967 41.2467 23.19 41.06C23.09 40.8667 22.98 40.6667 22.86 40.46C22.74 40.2533 22.6233 40.0633 22.51 39.89C22.4033 39.71 22.32 39.57 22.26 39.47L22.58 39.15ZM24.7 37.96H28.52V38.6H24.7V37.96ZM26.59 36.28C26.4033 36.56 26.1667 36.8467 25.88 37.14C25.5933 37.4267 25.2767 37.7033 24.93 37.97C24.59 38.23 24.2333 38.4567 23.86 38.65C23.8267 38.5567 23.77 38.45 23.69 38.33C23.6167 38.21 23.55 38.11 23.49 38.03C23.8633 37.8567 24.2233 37.64 24.57 37.38C24.9167 37.1133 25.23 36.83 25.51 36.53C25.7967 36.2233 26.03 35.92 26.21 35.62H26.9C27.14 35.9467 27.4167 36.2633 27.73 36.57C28.05 36.87 28.3867 37.14 28.74 37.38C29.0933 37.62 29.4433 37.8167 29.79 37.97C29.7167 38.0567 29.6433 38.1633 29.57 38.29C29.4967 38.41 29.4367 38.52 29.39 38.62C29.05 38.4467 28.7033 38.2333 28.35 37.98C27.9967 37.7267 27.6667 37.4533 27.36 37.16C27.06 36.8667 26.8033 36.5733 26.59 36.28ZM24.72 40.13V41.5H28.47V40.13H24.72ZM24.05 39.53H29.16V42.11H24.05V39.53ZM26.22 38.35H26.91V41C26.91 41.3533 26.87 41.7133 26.79 42.08C26.7167 42.44 26.57 42.79 26.35 43.13C26.13 43.4633 25.8133 43.7767 25.4 44.07C24.9867 44.3633 24.4467 44.6233 23.78 44.85C23.76 44.79 23.7233 44.7233 23.67 44.65C23.6233 44.5833 23.57 44.5133 23.51 44.44C23.4567 44.3733 23.4067 44.32 23.36 44.28C23.9933 44.08 24.5 43.8533 24.88 43.6C25.2667 43.3467 25.5533 43.0767 25.74 42.79C25.9333 42.5033 26.06 42.2067 26.12 41.9C26.1867 41.5933 26.22 41.2867 26.22 40.98V38.35ZM27.01 41.73C27.21 42.2233 27.4367 42.6267 27.69 42.94C27.9433 43.2533 28.24 43.5067 28.58 43.7C28.92 43.8933 29.3033 44.0633 29.73 44.21C29.6367 44.29 29.5467 44.3867 29.46 44.5C29.38 44.62 29.32 44.7367 29.28 44.85C28.82 44.67 28.4067 44.46 28.04 44.22C27.68 43.98 27.3633 43.6733 27.09 43.3C26.8167 42.92 26.5767 42.44 26.37 41.86L27.01 41.73ZM34.61 42.04H35.35V44.82H34.61V42.04ZM34.6 35.59H35.35V38.4H34.6V35.59ZM34.24 38.58L34.93 38.91C34.6433 39.1833 34.3333 39.4567 34 39.73C33.6667 40.0033 33.3533 40.2367 33.06 40.43L32.51 40.13C32.7033 39.99 32.9067 39.83 33.12 39.65C33.3333 39.47 33.54 39.2867 33.74 39.1C33.94 38.9067 34.1067 38.7333 34.24 38.58ZM36.39 39.22L37.08 39.59C36.7 39.8967 36.2867 40.2133 35.84 40.54C35.3933 40.86 34.94 41.17 34.48 41.47C34.0267 41.7633 33.5967 42.0267 33.19 42.26L32.66 41.89C32.96 41.7167 33.2767 41.5233 33.61 41.31C33.95 41.09 34.29 40.86 34.63 40.62C34.97 40.38 35.29 40.14 35.59 39.9C35.89 39.66 36.1567 39.4333 36.39 39.22ZM31.75 40.1L32.25 39.67C32.4967 39.79 32.7567 39.93 33.03 40.09C33.31 40.25 33.5733 40.41 33.82 40.57C34.0733 40.73 34.28 40.88 34.44 41.02L33.91 41.51C33.7633 41.37 33.5667 41.2167 33.32 41.05C33.08 40.8767 32.82 40.7067 32.54 40.54C32.2667 40.3733 32.0033 40.2267 31.75 40.1ZM36.29 40.88L36.79 40.49C37.0833 40.6567 37.39 40.85 37.71 41.07C38.0367 41.2833 38.3433 41.5 38.63 41.72C38.9167 41.9333 39.15 42.1267 39.33 42.3L38.81 42.76C38.63 42.58 38.4 42.38 38.12 42.16C37.84 41.9333 37.54 41.71 37.22 41.49C36.9 41.2633 36.59 41.06 36.29 40.88ZM36.31 43.02L36.89 42.63C37.1767 42.77 37.4767 42.9333 37.79 43.12C38.11 43.3 38.4133 43.4867 38.7 43.68C38.9867 43.8733 39.2233 44.0533 39.41 44.22L38.79 44.67C38.6233 44.5033 38.4 44.32 38.12 44.12C37.8467 43.9267 37.55 43.7333 37.23 43.54C36.91 43.3467 36.6033 43.1733 36.31 43.02ZM30.66 41.73C31.1133 41.73 31.6333 41.73 32.22 41.73C32.8133 41.7233 33.4467 41.7167 34.12 41.71C34.7933 41.6967 35.49 41.6867 36.21 41.68C36.93 41.6667 37.6467 41.6533 38.36 41.64L38.32 42.23C37.3933 42.2567 36.4633 42.2833 35.53 42.31C34.6033 42.3367 33.7233 42.36 32.89 42.38C32.0633 42.4 31.3333 42.4167 30.7 42.43L30.66 41.73ZM32.9 42.62L33.61 42.89C33.3833 43.1167 33.1233 43.3433 32.83 43.57C32.5433 43.79 32.2433 43.9933 31.93 44.18C31.6233 44.3733 31.3267 44.5433 31.04 44.69C31 44.6433 30.9433 44.5867 30.87 44.52C30.7967 44.4533 30.7233 44.3867 30.65 44.32C30.5767 44.26 30.5067 44.21 30.44 44.17C30.8867 43.9833 31.3333 43.7533 31.78 43.48C32.2267 43.2067 32.6 42.92 32.9 42.62ZM30.76 36.48H39.22V37.14H30.76V36.48ZM30.74 38.1H39.3V39.99H38.57V38.76H31.45V39.99H30.74V38.1Z" fill="#7D8080"/>
<path d="M34.6622 28.0313L27.4484 20.8189C29.5393 18.3087 30.5819 15.0891 30.3593 11.8297C30.1368 8.57039 28.6663 5.52232 26.2537 3.31959C23.841 1.11685 20.6721 -0.0709464 17.406 0.0032806C14.1399 0.0775077 11.0282 1.40805 8.71811 3.71811C6.40805 6.02817 5.07751 9.13991 5.00328 12.406C4.92905 15.6721 6.11685 18.841 8.31959 21.2537C10.5223 23.6663 13.5704 25.1368 16.8297 25.3593C20.0891 25.5819 23.3087 24.5393 25.8189 22.4484L33.0313 29.6622C33.1384 29.7693 33.2655 29.8543 33.4054 29.9122C33.5454 29.9702 33.6953 30 33.8468 30C33.9982 30 34.1482 29.9702 34.2881 29.9122C34.428 29.8543 34.5551 29.7693 34.6622 29.6622C34.7693 29.5551 34.8543 29.428 34.9122 29.2881C34.9702 29.1482 35 28.9982 35 28.8468C35 28.6953 34.9702 28.5454 34.9122 28.4054C34.8543 28.2655 34.7693 28.1384 34.6622 28.0313ZM7.33704 12.7104C7.33704 10.6587 7.94543 8.65316 9.08527 6.94727C10.2251 5.24138 11.8452 3.9118 13.7407 3.12666C15.6362 2.34153 17.7219 2.1361 19.7342 2.53636C21.7464 2.93662 23.5947 3.92459 25.0455 5.37533C26.4962 6.82607 27.4842 8.67443 27.8845 10.6867C28.2847 12.6989 28.0793 14.7846 27.2942 16.6801C26.509 18.5756 25.1794 20.1957 23.4735 21.3356C21.7677 22.4754 19.7621 23.0838 17.7104 23.0838C14.9602 23.0807 12.3234 21.9868 10.3787 20.0421C8.43397 18.0974 7.34009 15.4607 7.33704 12.7104Z" fill="#7D8080"/>
</svg>
